<svg width="126" height="34" viewBox="0 0 126 34" fill="none" xmlns="http://www.w3.org/2000/svg">
<path d="M40.4326 16.1487C40.4326 14.8722 40.714 13.7321 41.2768 12.7283C41.8518 11.712 42.6287 10.9251 43.6075 10.3674C44.5985 9.79734 45.7057 9.5123 46.9291 9.5123C48.3606 9.5123 49.6146 9.88409 50.6912 10.6277C51.7679 11.3712 52.5203 12.3999 52.9485 13.7135H49.9939C49.7002 13.0939 49.2843 12.6291 48.7459 12.3193C48.2199 12.0095 47.6081 11.8546 46.9108 11.8546C46.1645 11.8546 45.4977 12.0343 44.9104 12.3937C44.3354 12.7407 43.8827 13.2364 43.5524 13.8808C43.2343 14.5252 43.0753 15.2812 43.0753 16.1487C43.0753 17.0038 43.2343 17.7598 43.5524 18.4166C43.8827 19.061 44.3354 19.563 44.9104 19.9224C45.4977 20.2694 46.1645 20.4429 46.9108 20.4429C47.6081 20.4429 48.2199 20.2879 48.7459 19.9781C49.2843 19.6559 49.7002 19.185 49.9939 18.5653H52.9485C52.5203 19.8914 51.7679 20.9262 50.6912 21.6698C49.6268 22.4009 48.3728 22.7665 46.9291 22.7665C45.7057 22.7665 44.5985 22.4877 43.6075 21.93C42.6287 21.3599 41.8518 20.573 41.2768 19.5692C40.714 18.5653 40.4326 17.4252 40.4326 16.1487Z" fill="#56B280"/>
<path d="M54.4823 17.4686C54.4823 16.4276 54.6842 15.5043 55.0879 14.6987C55.5039 13.8932 56.0605 13.2736 56.7579 12.8398C57.4675 12.406 58.2566 12.1892 59.1253 12.1892C59.8838 12.1892 60.5445 12.3441 61.1073 12.6539C61.6823 12.9637 62.1411 13.3541 62.4836 13.825V12.3565H65.0712V22.655H62.4836V21.1493C62.1533 21.6326 61.6945 22.0353 61.1073 22.3576C60.5322 22.6674 59.8655 22.8223 59.1069 22.8223C58.2505 22.8223 57.4675 22.5992 56.7579 22.1531C56.0605 21.7069 55.5039 21.0811 55.0879 20.2756C54.6842 19.4576 54.4823 18.522 54.4823 17.4686ZM62.4836 17.5057C62.4836 16.8737 62.3613 16.3346 62.1166 15.8885C61.8719 15.4299 61.5416 15.0829 61.1256 14.8475C60.7096 14.5996 60.2631 14.4757 59.7859 14.4757C59.3088 14.4757 58.8683 14.5934 58.4646 14.8289C58.0609 15.0643 57.7305 15.4113 57.4736 15.8699C57.2289 16.316 57.1066 16.8489 57.1066 17.4686C57.1066 18.0882 57.2289 18.6335 57.4736 19.1044C57.7305 19.563 58.0609 19.9162 58.4646 20.164C58.8806 20.4119 59.321 20.5358 59.7859 20.5358C60.2631 20.5358 60.7096 20.4181 61.1256 20.1826C61.5416 19.9347 61.8719 19.5877 62.1166 19.1416C62.3613 18.6831 62.4836 18.1378 62.4836 17.5057Z" fill="#56B280"/>
<path d="M73.2145 12.2078C74.4257 12.2078 75.4045 12.5981 76.1508 13.3789C76.8971 14.1473 77.2702 15.2254 77.2702 16.6134V22.655H74.701V16.9666C74.701 16.1487 74.4991 15.5229 74.0954 15.0891C73.6917 14.643 73.1411 14.4199 72.4437 14.4199C71.7341 14.4199 71.1714 14.643 70.7554 15.0891C70.3516 15.5229 70.1498 16.1487 70.1498 16.9666V22.655H67.5805V12.3565H70.1498V13.6391C70.4923 13.193 70.9267 12.846 71.4527 12.5981C71.9911 12.3379 72.5783 12.2078 73.2145 12.2078Z" fill="#56B280"/>
<path d="M79.0528 17.4686C79.0528 16.4276 79.2547 15.5043 79.6584 14.6987C80.0744 13.8932 80.6372 13.2736 81.3468 12.8398C82.0564 12.406 82.8455 12.1892 83.7141 12.1892C84.3748 12.1892 85.0049 12.3379 85.6044 12.6353C86.2038 12.9204 86.681 13.3045 87.0358 13.7879V8.89885H89.6417V22.655H87.0358V21.1307C86.7177 21.6388 86.2711 22.0477 85.6961 22.3576C85.1211 22.6674 84.4543 22.8223 83.6958 22.8223C82.8394 22.8223 82.0564 22.5992 81.3468 22.1531C80.6372 21.7069 80.0744 21.0811 79.6584 20.2756C79.2547 19.4576 79.0528 18.522 79.0528 17.4686ZM87.0541 17.5057C87.0541 16.8737 86.9318 16.3346 86.6871 15.8885C86.4424 15.4299 86.1121 15.0829 85.6961 14.8475C85.2801 14.5996 84.8336 14.4757 84.3564 14.4757C83.8793 14.4757 83.4389 14.5934 83.0351 14.8289C82.6314 15.0643 82.301 15.4113 82.0441 15.8699C81.7994 16.316 81.6771 16.8489 81.6771 17.4686C81.6771 18.0882 81.7994 18.6335 82.0441 19.1044C82.301 19.563 82.6314 19.9162 83.0351 20.164C83.4511 20.4119 83.8915 20.5358 84.3564 20.5358C84.8336 20.5358 85.2801 20.4181 85.6961 20.1826C86.1121 19.9347 86.4424 19.5877 86.6871 19.1416C86.9318 18.6831 87.0541 18.1378 87.0541 17.5057Z" fill="#56B280"/>
<path d="M94.7203 8.89885V22.655H92.151V8.89885H94.7203Z" fill="#56B280"/>
<path d="M106.71 17.2827C106.71 17.6545 106.685 17.9891 106.636 18.2865H99.204C99.2651 19.0301 99.5221 19.6125 99.9748 20.0339C100.427 20.4552 100.984 20.6659 101.645 20.6659C102.599 20.6659 103.278 20.2508 103.682 19.4204H106.453C106.159 20.4119 105.596 21.2298 104.765 21.8742C103.933 22.5063 102.911 22.8223 101.7 22.8223C100.721 22.8223 99.8402 22.6054 99.0572 22.1717C98.2864 21.7255 97.6808 21.0997 97.2403 20.2941C96.8121 19.4886 96.598 18.5591 96.598 17.5057C96.598 16.4399 96.8121 15.5043 97.2403 14.6987C97.6685 13.8932 98.268 13.2736 99.0388 12.8398C99.8096 12.406 100.697 12.1892 101.7 12.1892C102.666 12.1892 103.529 12.3999 104.287 12.8212C105.058 13.2426 105.652 13.8436 106.068 14.6244C106.496 15.3927 106.71 16.2788 106.71 17.2827ZM104.049 16.5391C104.037 15.8699 103.798 15.337 103.333 14.9404C102.868 14.5314 102.299 14.327 101.626 14.327C100.99 14.327 100.452 14.5252 100.011 14.9218C99.5832 15.306 99.3202 15.8451 99.2223 16.5391H104.049Z" fill="#56B280"/>
<path d="M107.924 17.4686C107.924 16.4276 108.126 15.5043 108.53 14.6987C108.946 13.8932 109.503 13.2736 110.2 12.8398C110.91 12.406 111.699 12.1892 112.567 12.1892C113.326 12.1892 113.987 12.3441 114.549 12.6539C115.124 12.9637 115.583 13.3541 115.926 13.825V12.3565H118.513V22.655H115.926V21.1493C115.595 21.6326 115.137 22.0353 114.549 22.3576C113.974 22.6674 113.308 22.8223 112.549 22.8223C111.693 22.8223 110.91 22.5992 110.2 22.1531C109.503 21.7069 108.946 21.0811 108.53 20.2756C108.126 19.4576 107.924 18.522 107.924 17.4686ZM115.926 17.5057C115.926 16.8737 115.803 16.3346 115.559 15.8885C115.314 15.4299 114.984 15.0829 114.568 14.8475C114.152 14.5996 113.705 14.4757 113.228 14.4757C112.751 14.4757 112.311 14.5934 111.907 14.8289C111.503 15.0643 111.173 15.4113 110.916 15.8699C110.671 16.316 110.549 16.8489 110.549 17.4686C110.549 18.0882 110.671 18.6335 110.916 19.1044C111.173 19.563 111.503 19.9162 111.907 20.164C112.323 20.4119 112.763 20.5358 113.228 20.5358C113.705 20.5358 114.152 20.4181 114.568 20.1826C114.984 19.9347 115.314 19.5877 115.559 19.1416C115.803 18.6831 115.926 18.1378 115.926 17.5057Z" fill="#56B280"/>
<path d="M125.684 14.4943H123.904V22.655H121.298V14.4943H120.142V12.3565H121.298V11.836C121.298 10.5719 121.653 9.64243 122.362 9.04757C123.072 8.45271 124.143 8.17387 125.574 8.21104V10.4046C124.95 10.3922 124.516 10.4975 124.271 10.7206C124.026 10.9437 123.904 11.3465 123.904 11.9289V12.3565H125.684V14.4943Z" fill="#56B280"/>
<mask id="mask0_56_79" style="mask-type:alpha" maskUnits="userSpaceOnUse" x="0" y="0" width="35" height="34">
<circle cx="17.2928" cy="16.9764" r="16.8067" fill="#F578A5"/>
</mask>
<g mask="url(#mask0_56_79)">
<circle cx="17.2928" cy="16.9764" r="16.8067" fill="#56B280"/>
<path d="M9.5618 33.5395V33.9072H9.92944H25.5183H25.8859V33.5395V26.9985C25.8859 26.3977 25.4097 25.905 24.8093 25.8845L10.7144 25.404C10.0843 25.3825 9.5618 25.8875 9.5618 26.518V33.5395Z" fill="white" stroke="white" stroke-width="0.735294"/>
<g clip-path="url(#clip0_56_79)">
<path d="M12.8 11.9713C16.2251 7.20904 14.7518 3.33272 14.7559 3.32812C14.6833 3.134 14.7818 2.9178 14.976 2.84517C15.0739 2.80854 15.1826 2.81445 15.276 2.86142C21.4577 5.81942 24.1178 9.63792 24.6273 13.0903C24.8298 14.4316 24.7032 15.802 24.2584 17.0836C23.8508 18.2661 23.1719 19.3367 22.2761 20.2096C20.553 21.8737 18.1449 22.6408 15.7682 21.8631C15.1602 21.6647 14.5865 21.3738 14.0674 21.0004C13.026 20.2529 12.236 19.2069 11.802 18.0006C11.3416 16.7106 11.3269 15.3034 11.7605 14.004C11.9999 13.2768 12.3506 12.5911 12.8 11.9713Z" fill="white"/>
<path d="M14.8312 3.45089C14.6807 3.30848 14.674 3.07096 14.8164 2.92043C14.9588 2.76989 15.1964 2.76324 15.3469 2.90565C15.358 2.91613 15.3684 2.92727 15.3781 2.93902C15.3919 2.95144 18.3765 6.07991 18.8028 12.1266L18.8073 12.1833C18.8993 13.5965 18.8539 15.0154 18.6716 16.4198L20.7124 14.8559C20.8834 14.7387 21.1169 14.7822 21.2341 14.9531C21.3402 15.1079 21.3157 15.3172 21.1768 15.4432L18.5097 17.481C17.9126 20.9913 15.8077 25.9574 18.5942 29.0656C18.7284 29.2235 18.7091 29.4604 18.5512 29.5946C18.4009 29.7223 18.1773 29.7118 18.0396 29.5706C14.6982 25.8462 17.1296 21.2324 17.795 17.2425L17.8037 17.1865C18.0743 15.5988 18.167 13.9858 18.0802 12.3776L15.6814 10.62C15.5103 10.503 15.4664 10.2695 15.5833 10.0984C15.7003 9.92729 15.9338 9.88341 16.1049 10.0004C16.112 10.0052 16.1189 10.0103 16.1256 10.0156L17.9843 11.384C17.4045 6.14249 14.8421 3.46346 14.8312 3.45089Z" fill="#56B280"/>
</g>
</g>
<defs>
<clipPath id="clip0_56_79">
<rect width="20.6274" height="20.6274" fill="white" transform="translate(2.46729 16.6355) rotate(-48)"/>
</clipPath>
</defs>
</svg>
